<svg id="Layer_1" data-name="Layer 1" xmlns="http://www.w3.org/2000/svg" viewBox="0 0 321.72 194.25"><defs><style>.cls-1{fill:silver;}.cls-1,.cls-2,.cls-4,.cls-5,.cls-6{stroke:#000;}.cls-1,.cls-2,.cls-6{stroke-width:2px;}.cls-2,.cls-4,.cls-5,.cls-6{fill:none;}.cls-3,.cls-6{opacity:0.15;}.cls-4{stroke-width:2px;}.cls-5{stroke-width:2px;}.cls-6{isolation:isolate;}.cls-7{font-size:21px;font-family:Arial-BoldMT, Arial;font-weight:700;letter-spacing:0.08em;}.cls-8{letter-spacing:0.06em;}.cls-10,.cls-9{fill:#7c7c7c;}.cls-9{letter-spacing:0.08em;}.cls-10{letter-spacing:0.04em;}</style></defs><title>cmb-logo</title><g id="Page-1"><g id="Desktop-HD"><g id="Group-13"><g id="Group-7"><g id="Group-6"><rect id="Rectangle" class="cls-1" x="147.94" y="100.9" width="16.58" height="15.79" rx="7.9"/><path id="Rectangle-2" data-name="Rectangle" class="cls-2" d="M171.06,125.81l1.59,1.23c2.58,2.41,3.41,4,8,7.43v15a8.29,8.29,0,0,1-8.29,8.29h0a8.29,8.29,0,0,1-8.29-8.29v-15A8.34,8.34,0,0,1,171.06,125.81Z" transform="translate(-16.12 -41.08)"/><ellipse id="Oval-2" class="cls-2" cx="130.13" cy="53.24" rx="7.07" ry="8.38"/><ellipse id="Oval-2-2" data-name="Oval-2" class="cls-2" cx="179.09" cy="53.24" rx="7.07" ry="8.38"/></g><g id="Group-3"><g id="Group-2" class="cls-3"><circle id="Oval-3" class="cls-2" cx="212.7" cy="29.82" r="4.74"/><circle id="Oval-3-2" data-name="Oval-3" class="cls-2" cx="195.53" cy="111.76" r="5.86"/><path id="Rectangle-3" class="cls-4" d="M223.64,70.81l9.47.17m3.49,40.79-16.22-.48" transform="translate(-16.12 -41.08)"/><path id="Rectangle-3-2" data-name="Rectangle-3" class="cls-5" d="M221.59,103.67,236.92,111" transform="translate(-16.12 -41.08)"/></g><path id="Combined-Shape" class="cls-2" d="M215.38,157.36a8.91,8.91,0,0,0,2.45-3.53L237,111.3c-2-26.86-3.41-40.33-3.41-40.4a4.74,4.74,0,0,0-9.47-.08l-3,37.4L206.43,150a5.94,5.94,0,0,0-.69,2.79,6.05,6.05,0,0,0,.49,2.37l10.33,39.79L228,191.86Z" transform="translate(-16.12 -41.08)"/><path id="Path-4" class="cls-6" d="M206.32,151.63l10.61,3" transform="translate(-16.12 -41.08)"/></g><g id="Group-3-2" data-name="Group-3"><g id="Group-2-2" data-name="Group-2" class="cls-3"><circle id="Oval-3-3" data-name="Oval-3" class="cls-2" cx="95.82" cy="29.82" r="4.74"/><circle id="Oval-3-4" data-name="Oval-3" class="cls-2" cx="112.99" cy="111.76" r="5.86"/><path id="Rectangle-3-3" data-name="Rectangle-3" class="cls-4" d="M117.11,70.81l-9.47.17m-3.49,40.79,16.22-.48" transform="translate(-16.12 -41.08)"/><path id="Rectangle-3-4" data-name="Rectangle-3" class="cls-5" d="M119.16,103.67,103.83,111" transform="translate(-16.12 -41.08)"/></g><path id="Combined-Shape-2" data-name="Combined-Shape" class="cls-2" d="M125.37,157.36a9,9,0,0,1-2.45-3.53L103.79,111.3c2-26.86,3.41-40.33,3.41-40.4a4.74,4.74,0,0,1,9.48-.08l3,37.4L134.32,150a5.94,5.94,0,0,1,.69,2.79,5.88,5.88,0,0,1-.49,2.37l-10.33,39.79-11.44-3.07Z" transform="translate(-16.12 -41.08)"/><path id="Path-4-2" data-name="Path-4" class="cls-6" d="M134.43,151.63l-10.61,3" transform="translate(-16.12 -41.08)"/></g><g id="Group-5"><path id="Combined-Shape-3" data-name="Combined-Shape" class="cls-2" d="M195.72,131c12.1-7.48,20.06-20.2,20.06-34.63a38.6,38.6,0,0,0-1.58-11,43.63,43.63,0,0,0-87.26,0,39,39,0,0,0-1.57,11c0,16.44,10.33,30.66,25.34,37.43q-.12,2.08-.12,4.23c0,23,10.18,41.66,22.73,41.66S196,161,196,138C196,135.63,195.93,133.28,195.72,131Z" transform="translate(-16.12 -41.08)"/><g id="Group-4" class="cls-3"><ellipse id="Oval-4" class="cls-2" cx="154.45" cy="55.29" rx="45.21" ry="41.66"/><ellipse id="Oval-5" class="cls-2" cx="157.2" cy="96.95" rx="22.72" ry="41.66"/></g></g></g></g><text class="cls-7" transform="translate(0 186.34)">CHECK M<tspan class="cls-8" x="109.32" y="0">Y</tspan><tspan x="124.56" y="0"> </tspan><tspan class="cls-9" x="132.01" y="0">BUNDLEPHOBI</tspan><tspan class="cls-10" x="303.8" y="0">A</tspan></text></g><path d="M169.91,108.75a1.21,1.21,0,0,0-.84-.35,1.23,1.23,0,0,0-.85.35l-.84.85-2.75-2.75a21.54,21.54,0,1,0-5.08,5.08l2.75,2.75-.85.84a1.2,1.2,0,0,0,0,1.69l15.13,15.13c2.34,2.34,16.62,13.26,18.95,10.92s-8.15-17-10.49-19.38ZM164,113l-2.56-2.56c.3-.27.59-.54.87-.82s.55-.57.82-.87l2.56,2.56Zm-30.46-5.07a19.15,19.15,0,1,1,27.08,0A19.14,19.14,0,0,1,133.53,107.91Zm35.54,3.38,3.38,3.39-5.07,5.07L164,116.37Zm25.32,30.4c-1.4,1.41-14.71-9.63-16.12-11l-9.2-9.21,5.07-5.07,9.21,9.21C184.75,127,195.8,140.29,194.39,141.69Z" transform="translate(-16.12 -41.08)"/><path d="M158.76,82.73a16.75,16.75,0,1,0,0,23.69A16.76,16.76,0,0,0,158.76,82.73Zm-1.7,22a14.36,14.36,0,1,1,0-20.31A14.35,14.35,0,0,1,157.06,104.73Z" transform="translate(-16.12 -41.08)"/></g></svg>